<svg width="55" height="54" viewBox="0 0 55 54" fill="none" xmlns="http://www.w3.org/2000/svg">
<rect x="0.25" width="54" height="54" rx="27" fill="#F4F4F4"/>
<path fill-rule="evenodd" clip-rule="evenodd" d="M19.6967 23.5059C18.6766 23.7001 17.9059 23.9172 17.3351 24.1169C16.2687 24.49 15.6328 25.4171 15.3571 26.4139C15.0392 27.5633 14.5966 29.2385 14.3071 30.6485C14.0889 31.7114 13.864 32.9277 13.6811 33.9535C13.3991 35.5351 13.991 37.2218 15.6541 37.7907C17.6225 38.4641 21.1702 39.1878 27.3374 39.1878C33.4518 39.1878 37.0091 38.4764 39.0036 37.8085C40.7135 37.2359 41.3198 35.5025 41.0236 33.8803C40.8402 32.8757 40.6233 31.6978 40.4263 30.6555C40.1567 29.2293 39.7138 27.5599 39.3913 26.4151C39.1091 25.4133 38.4604 24.4914 37.3917 24.1206C36.936 23.9625 36.354 23.7932 35.6218 23.6328V24.5645C36.229 24.7041 36.7136 24.8476 37.0937 24.9794C37.8016 25.225 38.2886 25.8535 38.5163 26.6616C38.837 27.8003 39.2711 29.4386 39.533 30.8243C39.7295 31.864 39.946 33.0397 40.1293 34.0436C40.3735 35.3811 39.858 36.5637 38.715 36.9465C36.8405 37.5742 33.3869 38.2787 27.3374 38.2787C21.2352 38.2787 17.7937 37.5619 15.9483 36.9306C14.8447 36.5531 14.3448 35.4101 14.5761 34.1131C14.7584 33.0904 14.9817 31.883 15.1976 30.8313C15.4807 29.4525 15.9166 27.8013 16.2333 26.6562C16.4567 25.8484 16.9345 25.2202 17.6353 24.9749C18.1294 24.8021 18.8025 24.6095 19.6967 24.432V23.5059ZM22.1494 25.1493C21.6852 25.2134 21.2507 25.2858 20.8513 25.3657C20.0138 25.5332 19.3066 25.7379 18.7978 25.9784C18.5446 26.0982 18.3162 26.238 18.1447 26.4056C17.9725 26.5739 17.8232 26.8063 17.8232 27.0971C17.8232 27.3879 17.9725 27.6203 18.1447 27.7886C18.3162 27.9561 18.5446 28.096 18.7978 28.2157C19.3066 28.4563 20.0138 28.661 20.8513 28.8284C22.5337 29.1649 24.8377 29.3698 27.3687 29.3698C29.8996 29.3698 32.2036 29.1649 33.886 28.8284C34.7235 28.661 35.4307 28.4563 35.9395 28.2157C36.1927 28.096 36.4211 27.9561 36.5926 27.7886C36.7648 27.6203 36.9141 27.3879 36.9141 27.0971C36.9141 26.8063 36.7648 26.5739 36.5926 26.4056C36.4211 26.238 36.1927 26.0982 35.9395 25.9784C35.4307 25.7379 34.7235 25.5332 33.886 25.3657C33.4866 25.2858 33.0521 25.2134 32.5879 25.1493H22.1494ZM18.7802 27.0557C18.7624 27.0731 18.7506 27.0868 18.7428 27.0971C18.7506 27.1073 18.7624 27.1211 18.7802 27.1384C18.8509 27.2076 18.9797 27.2961 19.1865 27.3939C19.5977 27.5883 20.2219 27.7755 21.0296 27.937C22.6374 28.2586 24.8789 28.4607 27.3687 28.4607C29.8584 28.4607 32.0999 28.2586 33.7078 27.937C34.5154 27.7755 35.1396 27.5883 35.5508 27.3939C35.7576 27.2961 35.8864 27.2076 35.9572 27.1384C35.9749 27.1211 35.9867 27.1073 35.9945 27.0971C35.9867 27.0868 35.9749 27.0731 35.9572 27.0557C35.8864 26.9866 35.7576 26.8981 35.5508 26.8003C35.1396 26.6058 34.5154 26.4187 33.7078 26.2572C32.0999 25.9356 29.8584 25.7334 27.3687 25.7334C24.8789 25.7334 22.6374 25.9356 21.0296 26.2572C20.2219 26.4187 19.5977 26.6058 19.1865 26.8003C18.9797 26.8981 18.8509 26.9866 18.7802 27.0557Z" fill="black"/>
<path fill-rule="evenodd" clip-rule="evenodd" d="M23.1516 25.9282C22.6335 26.5479 21.8546 26.9421 20.9837 26.9421C19.4237 26.9421 18.1591 25.6775 18.1591 24.1175C18.1591 22.5575 19.4237 21.2929 20.9837 21.2929L21.0159 21.2931C20.9948 21.112 20.984 20.9277 20.984 20.741C20.984 18.135 23.0965 16.0225 25.7025 16.0225C27.4753 16.0225 29.0198 17.0002 29.8261 18.4458C30.2749 18.1454 30.8146 17.9703 31.3952 17.9703C32.9551 17.9703 34.2198 19.2349 34.2198 20.7949C34.2198 20.8856 34.2155 20.9754 34.2071 21.064C35.433 21.3723 36.3407 22.4819 36.3407 23.8035C36.3407 25.3634 35.0761 26.6281 33.5161 26.6281C32.8992 26.6281 32.3285 26.4303 31.864 26.0948C31.3513 26.6177 30.637 26.9421 29.8469 26.9421C29.1617 26.9421 28.5335 26.6982 28.0444 26.2924C27.5368 27.0437 26.6772 27.5377 25.7022 27.5377C24.5773 27.5377 23.6059 26.88 23.1516 25.9282ZM28.5738 23.2899C28.5738 23.4699 28.5583 23.6461 28.5285 23.8175C28.2785 22.3796 27.0244 21.2862 25.5149 21.2862C24.0054 21.2862 22.7513 22.3796 22.5013 23.8175C22.4715 23.6461 22.4559 23.4699 22.4559 23.2899C22.4559 21.6005 23.8255 20.231 25.5149 20.231C26.49 20.231 27.3586 20.6873 27.9187 21.398C28.395 20.8666 29.1013 20.4869 29.8727 20.4869C31.1618 20.4869 32.2067 21.5319 32.2067 22.8209C32.2067 22.9582 32.1949 23.0927 32.1721 23.2234C31.6996 21.91 30.7886 21.4442 29.8727 21.4442C29.2599 21.4442 28.7404 21.7009 28.3296 22.0902C28.4868 22.4586 28.5738 22.8641 28.5738 23.2899Z" fill="#9523DC"/>
</svg>
