<svg width="54" height="54" viewBox="0 0 54 54" fill="none" xmlns="http://www.w3.org/2000/svg">
<rect width="54" height="54" rx="27" fill="#F4F4F4"/>
<path fill-rule="evenodd" clip-rule="evenodd" d="M37.9686 13.2856H37.9683C31.3784 13.2933 31.3169 13.3057 31.2665 13.3158C30.6986 13.43 30.2423 13.8621 30.1102 14.3954L30.0881 14.4688C30.0798 14.5099 30.0751 14.5528 30.0692 14.6302C30.0623 14.6759 30.0574 14.7212 30.0574 14.7688V29.1336C30.0574 29.9513 30.7356 30.6167 31.5699 30.6167C32.4052 30.6167 33.0847 29.9513 33.0847 29.1336V18.7147C33.0847 17.5751 34.435 16.2519 35.5978 16.2519H37.968H37.9701C38.3727 16.2519 38.7516 16.0981 39.0373 15.8182C39.3239 15.5374 39.4821 15.165 39.4821 14.7688C39.4821 13.9511 38.8032 13.2856 37.9686 13.2856" fill="#9523DC"/>
<mask id="mask0_19759_56606" style="mask-type:luminance" maskUnits="userSpaceOnUse" x="14" y="16" width="13" height="12">
<path fill-rule="evenodd" clip-rule="evenodd" d="M14.5714 16.3276H26.0068V27.5314H14.5714V16.3276Z" fill="white"/>
</mask>
<g mask="url(#mask0_19759_56606)">
<path fill-rule="evenodd" clip-rule="evenodd" d="M22.98 21.7573V26.0483C22.98 26.8662 23.6595 27.5314 24.4947 27.5314C25.3287 27.5314 26.0069 26.8662 26.0069 26.0483V17.8114C26.0069 16.9934 25.3284 16.3276 24.4935 16.3276H16.0849C15.2506 16.3276 14.5714 16.9934 14.5714 17.8114C14.5714 18.2073 14.7293 18.5797 15.0159 18.8599C15.3019 19.1401 15.6811 19.2945 16.084 19.2945H16.0849H20.4665C21.6294 19.2945 22.98 20.6174 22.98 21.7573" fill="#9523DC"/>
</g>
<path fill-rule="evenodd" clip-rule="evenodd" d="M26.8695 30.0483C23.7191 30.0483 21.1562 32.5593 21.1562 35.6455C21.1562 38.732 23.7191 41.2429 26.8695 41.2429C30.0199 41.2429 32.5825 38.732 32.5825 35.6455C32.5825 32.5593 30.0199 30.0483 26.8695 30.0483M29.3752 35.6449C29.3752 36.9983 28.2512 38.0992 26.8698 38.0992C25.4887 38.0992 24.3644 36.9983 24.3644 35.6449C24.3644 34.2916 25.4887 33.1906 26.8698 33.1906C28.2512 33.1906 29.3752 34.2916 29.3752 35.6449" fill="#9523DC"/>
</svg>
