<svg width="55" height="54" viewBox="0 0 55 54" fill="none" xmlns="http://www.w3.org/2000/svg">
<rect x="0.75" width="54" height="54" rx="27" fill="#F6F6F6"/>
<path fill-rule="evenodd" clip-rule="evenodd" d="M18.9432 15.1816C18.19 15.1816 17.5795 15.7922 17.5795 16.5453V18.1362C17.5795 18.3759 17.6414 18.6011 17.75 18.7969V19.0453V20.3023C16.1485 20.9909 15.0227 22.5641 15.0227 24.4024V36.456C15.0227 37.4544 15.8445 38.2498 16.8409 38.2498H27.75C28.7464 38.2498 29.5682 37.4544 29.5682 36.456V24.4024C29.5682 22.5641 28.4424 20.9909 26.8409 20.3023V19.0453V18.7969C26.9495 18.6011 27.0113 18.3759 27.0113 18.1362V16.5453C27.0113 15.7922 26.4008 15.1816 25.6477 15.1816H18.9432ZM25.6477 18.5907C25.8987 18.5907 26.1023 18.3872 26.1023 18.1362V16.5453C26.1023 16.2942 25.8987 16.0907 25.6477 16.0907H18.9432C18.6921 16.0907 18.4886 16.2942 18.4886 16.5453V18.1362C18.4886 18.3872 18.6921 18.5907 18.9432 18.5907H25.6477ZM18.9432 19.4998H18.6591V20.6132V20.9366L18.3536 21.0426C16.9377 21.5341 15.9318 22.8568 15.9318 24.4024V36.456C15.9318 36.9369 16.331 37.3407 16.8409 37.3407H27.75C28.2598 37.3407 28.6591 36.9369 28.6591 36.456V24.4024C28.6591 22.8568 27.6532 21.5341 26.2373 21.0426L25.9318 20.9366V20.6132V19.4998H25.6477H18.9432ZM20.6852 25.9951C20.6852 25.493 21.0923 25.086 21.5943 25.086H22.9955C23.4976 25.086 23.9046 25.493 23.9046 25.9951V27.3963H25.3058C25.8079 27.3963 26.2149 27.8033 26.2149 28.3053V29.7065C26.2149 30.2086 25.8079 30.6156 25.3058 30.6156H23.9046V32.0168C23.9046 32.5189 23.4976 32.9259 22.9955 32.9259H21.5943C21.0923 32.9259 20.6852 32.5189 20.6852 32.0168V30.6156H19.2841C18.782 30.6156 18.375 30.2086 18.375 29.7065V28.3053C18.375 27.8033 18.782 27.3963 19.2841 27.3963H20.6852V25.9951ZM22.9955 25.9951L21.5943 25.9951V27.8508C21.5943 28.1018 21.3908 28.3053 21.1398 28.3053H19.2841V29.7065H21.1398C21.3908 29.7065 21.5943 29.91 21.5943 30.1611V32.0168H22.9955V30.1611C22.9955 29.91 23.199 29.7065 23.4501 29.7065L25.3058 29.7065L25.3058 28.3053H23.4501C23.199 28.3053 22.9955 28.1018 22.9955 27.8508V25.9951Z" fill="black"/>
<path fill-rule="evenodd" clip-rule="evenodd" d="M32.7802 34.1836C35.5416 34.1836 37.7802 31.945 37.7802 29.1836C37.7802 26.4222 35.5416 24.1836 32.7802 24.1836C30.0187 24.1836 27.7802 26.4222 27.7802 29.1836C27.7802 31.945 30.0187 34.1836 32.7802 34.1836ZM35.3743 27.2323C35.5518 27.0548 35.5518 26.767 35.3743 26.5895C35.1968 26.4119 34.909 26.4119 34.7315 26.5895L30.186 31.1349C30.0085 31.3124 30.0085 31.6002 30.186 31.7777C30.3635 31.9552 30.6513 31.9552 30.8288 31.7777L35.3743 27.2323Z" fill="#9523DC"/>
<path d="M30.9469 34.9922C30.9469 34.9922 31.5719 37.4081 35.9469 37.4081C40.3219 37.4081 40.9469 34.9922 40.9469 34.9922V37.8088C40.9469 38.291 40.7541 38.7557 40.3436 39.0087C39.6064 39.4629 38.1751 40.1004 35.9469 40.1004C33.7187 40.1004 32.2874 39.4629 31.5502 39.0087C31.1397 38.7557 30.9469 38.291 30.9469 37.8088V34.9922Z" fill="#9523DC"/>
<path fill-rule="evenodd" clip-rule="evenodd" d="M35.9469 37.501C38.7083 37.501 40.9469 36.3817 40.9469 35.001C40.9469 33.6203 38.7083 32.501 35.9469 32.501C33.1855 32.501 30.9469 33.6203 30.9469 35.001C30.9469 36.3817 33.1855 37.501 35.9469 37.501ZM39.161 35.4452C39.4121 35.4452 39.6156 35.2417 39.6156 34.9907C39.6156 34.7396 39.4121 34.5361 39.161 34.5361H32.7328C32.4817 34.5361 32.2782 34.7396 32.2782 34.9907C32.2782 35.2417 32.4817 35.4452 32.7328 35.4452H39.161Z" fill="#9523DC"/>
</svg>
