<svg width="55" height="54" viewBox="0 0 55 54" fill="none" xmlns="http://www.w3.org/2000/svg">
<rect x="0.5" width="54" height="54" rx="27" fill="#F6F6F6"/>
<path fill-rule="evenodd" clip-rule="evenodd" d="M36.9547 22.0084C37.2454 21.4462 37.4093 20.8082 37.4093 20.1321V19.4755H36.9547V22.0084ZM36.9547 23.5638C36.6833 23.8513 36.3782 24.1066 36.0457 24.3235V18.5664H38.3184V20.1321C38.3184 21.4607 37.8001 22.6684 36.9547 23.5638Z" fill="black"/>
<path fill-rule="evenodd" clip-rule="evenodd" d="M18.1366 22.0084C17.8459 21.4462 17.682 20.8082 17.682 20.1321V19.4755H18.1366V22.0084ZM18.1366 23.5638C18.408 23.8513 18.7131 24.1066 19.0457 24.3235V18.5664H16.7729V20.1321C16.7729 21.4607 17.2912 22.6684 18.1366 23.5638Z" fill="black"/>
<path fill-rule="evenodd" clip-rule="evenodd" d="M19.0148 16.7483H13.8637V20.1322C13.8637 23.4025 16.1671 26.137 19.2407 26.7979L19.6738 26.8911L19.8674 27.2896C20.8933 29.4021 22.7653 31.0278 25.0399 31.7266L25.682 31.9239V36.3541H23.3078V37.8172H31.7926V36.3541H29.3184V31.9461L29.9702 31.7538C32.2853 31.0707 34.1932 29.4302 35.2327 27.2899L35.4263 26.8913L35.8596 26.7983C38.9341 26.138 41.2383 23.4031 41.2383 20.1322V16.7483H36.0855V13.0522C36.0855 12.7224 35.8181 12.455 35.4883 12.455H19.612C19.2821 12.455 19.0148 12.7224 19.0148 13.0522V16.7483ZM24.7729 35.445H23.3078C22.8057 35.445 22.3987 35.8521 22.3987 36.3541V37.8172C22.3987 38.3193 22.8057 38.7263 23.3078 38.7263H31.7926C32.2947 38.7263 32.7017 38.3193 32.7017 37.8172V36.3541C32.7017 35.8521 32.2947 35.445 31.7926 35.445H30.2275V32.6257C32.791 31.8693 34.9006 30.0545 36.0504 27.6871C39.5352 26.9387 42.1474 23.8405 42.1474 20.1322V16.6827C42.1474 16.2169 41.7698 15.8392 41.3039 15.8392H36.9946V13.0522C36.9946 12.2203 36.3202 11.5459 35.4883 11.5459H19.612C18.7801 11.5459 18.1057 12.2203 18.1057 13.0522V15.8392H13.7981C13.3322 15.8392 12.9546 16.2169 12.9546 16.6827V20.1322C12.9546 23.8398 15.5658 26.9376 19.0496 27.6867C20.1844 30.0234 22.2544 31.8219 24.7729 32.5956V35.445Z" fill="black"/>
<path d="M19.8225 38.7265C19.8225 38.2244 20.2295 37.8174 20.7316 37.8174H34.368C34.87 37.8174 35.2771 38.2244 35.2771 38.7265V41.4537C35.2771 41.9558 34.87 42.3628 34.368 42.3628H20.7316C20.2295 42.3628 19.8225 41.9558 19.8225 41.4537V38.7265Z" fill="#9523DC"/>
<path d="M29 18V26H27.1184V19.5801H27.0685L25 20.7293V19.2597L27.2305 18H29Z" fill="#9523DC"/>
</svg>
