<svg width="251" height="54" viewBox="0 0 251 54" fill="none" xmlns="http://www.w3.org/2000/svg">
<path d="M75.58 19.632H72.142V8.508H79.882V9.768H73.636V18.372H75.688C77.56 18.372 79.468 18.3 81.016 18.048V19.29C79.468 19.524 77.524 19.632 75.58 19.632ZM78.82 14.448V13.17H83.104V7.662H84.58V22.296H83.104V14.448H78.82ZM107.096 13.296V14.556H104.432V22.296H102.938V18.966C101.012 19.29 98.6363 19.542 96.2423 19.542H92.1923V8.418H93.6863V18.282H96.3683C98.6363 18.282 100.976 18.066 102.938 17.706V7.662H104.432V13.296H107.096ZM110.902 11.19C110.902 8.76 113.008 6.87 115.708 6.87C118.408 6.87 120.496 8.76 120.496 11.19C120.496 12.612 119.794 13.818 118.678 14.592H123.214V15.87H108.184V14.592H112.738C111.622 13.818 110.902 12.612 110.902 11.19ZM112.396 11.316C112.396 13.116 113.818 14.484 115.708 14.484C117.58 14.484 119.002 13.116 119.002 11.316C119.002 9.516 117.58 8.148 115.708 8.148C113.818 8.148 112.396 9.516 112.396 11.316ZM121.99 21.504V22.764H109.75V17.67H111.244V21.504H121.99ZM142.184 21.342V22.62H130.448V17.706H131.942V21.342H142.184ZM144.254 11.658V12.936H141.68V18.264H140.186V7.572H141.68V11.658H144.254ZM135.452 7.824H136.946V16.014H129.278V7.824H130.772V10.578H135.452V7.824ZM130.772 11.838V14.754H135.452V11.838H130.772ZM149.77 19.812H146.566V13.35H151.948V9.606H146.566V8.328H153.424V14.61H148.042V18.534H149.896C151.822 18.534 153.73 18.408 155.26 18.174V19.434C153.712 19.668 151.804 19.812 149.77 19.812ZM157.672 16.176H154.54V14.916H157.672V11.946H154.54V10.686H157.672V7.662H159.166V22.296H157.672V16.176ZM166.878 7.734V8.976C166.878 11.478 168.048 13.422 170.172 14.592L169.326 15.69C167.94 14.898 166.842 13.638 166.23 12.396C165.6 13.926 164.376 15.294 162.936 16.122L162.108 15.024C164.196 13.872 165.384 11.91 165.384 9.39V7.734H166.878ZM176.436 7.572V16.068H174.942V12.162H172.566V15.294H171.072V7.662H172.566V10.884H174.942V7.572H176.436ZM166.734 19.704C166.734 17.544 168.696 15.87 171.234 15.87C173.79 15.87 175.752 17.544 175.752 19.704C175.752 21.882 173.79 23.556 171.234 23.556C168.696 23.556 166.734 21.882 166.734 19.704ZM168.228 19.704C168.228 21.18 169.506 22.296 171.234 22.296C172.962 22.296 174.258 21.18 174.258 19.704C174.258 18.246 172.962 17.13 171.234 17.13C169.506 17.13 168.228 18.246 168.228 19.704ZM179.558 8.346H183.788V7.05H185.264V8.346H189.44V9.57H187.676C188.216 9.948 188.54 10.452 188.54 10.992C188.54 12.126 187.154 13.008 185.264 13.188V14.304C187.244 14.286 189.224 14.178 190.97 13.926V7.572H192.464V10.974H195.038V12.234H192.464V15.942H190.97V15.168C189.134 15.402 186.812 15.564 184.49 15.564H179.486V14.304H183.788V13.188C181.898 13.008 180.53 12.126 180.53 10.992C180.53 10.452 180.854 9.948 181.394 9.57H179.558V8.346ZM182.726 21.738H192.878V22.944H181.232V19.254H190.97V18.03H181.232V16.788H192.464V20.46H182.726V21.738ZM182.024 10.794C182.024 11.514 183.104 12.018 184.544 12.018C185.984 12.018 187.064 11.514 187.064 10.794C187.064 10.074 185.984 9.57 184.544 9.57C183.104 9.57 182.024 10.074 182.024 10.794ZM199.149 10.596C199.149 8.508 201.147 6.87 203.739 6.87C206.313 6.87 208.311 8.508 208.311 10.596C208.311 11.748 207.717 12.756 206.763 13.404H211.245V14.682H196.215V13.404H200.697C199.743 12.756 199.149 11.748 199.149 10.596ZM197.781 16.14H209.679V20.136H199.275V21.702H210.201V22.944H197.781V18.912H208.185V17.418H197.781V16.14ZM200.643 10.758C200.643 12.234 201.975 13.35 203.739 13.35C205.485 13.35 206.817 12.234 206.817 10.758C206.817 9.264 205.485 8.148 203.739 8.148C201.975 8.148 200.643 9.264 200.643 10.758ZM217.616 11.082C217.616 8.94 219.506 7.284 221.936 7.284C224.402 7.284 226.274 8.94 226.274 11.082C226.274 13.242 224.402 14.916 221.936 14.916C219.506 14.916 217.616 13.242 217.616 11.082ZM228.776 22.296V17.004C226.958 17.256 224.69 17.4 222.494 17.4V22.116H220.982V17.4H216.986V16.14H222.44C224.564 16.14 226.814 16.014 228.776 15.744V7.662H230.27V22.296H228.776ZM219.11 11.082C219.11 12.54 220.316 13.638 221.936 13.638C223.592 13.638 224.78 12.54 224.78 11.082C224.78 9.66 223.592 8.544 221.936 8.544C220.316 8.544 219.11 9.66 219.11 11.082ZM234.327 12.918C234.327 11.82 234.849 10.866 235.677 10.218H233.463V8.976H237.567V7.05H239.061V8.976H243.093V10.218H240.969C241.797 10.866 242.319 11.82 242.319 12.918C242.319 14.934 240.573 16.464 238.323 16.464C236.073 16.464 234.327 14.934 234.327 12.918ZM247.143 21.342V22.62H235.407V17.706H236.901V21.342H247.143ZM235.803 12.738C235.803 14.16 236.901 15.222 238.323 15.222C239.763 15.222 240.843 14.16 240.843 12.738C240.843 11.316 239.763 10.218 238.323 10.218C236.901 10.218 235.803 11.316 235.803 12.738ZM249.213 11.838V13.098H246.639V18.264H245.145V7.572H246.639V11.838H249.213ZM86.83 35.596V37.702H84.436V40.924H81.916V32.41H84.436V35.596H86.83ZM71.512 41.374L70.702 39.394C74.554 38.692 76.912 37.108 77.182 34.732H71.584V32.662H79.72V34.156C79.72 37.954 76.48 40.492 71.512 41.374ZM74.14 44.596C74.14 42.292 76.282 40.546 79.054 40.546C81.844 40.546 83.968 42.292 83.968 44.596C83.968 46.918 81.844 48.682 79.054 48.682C76.282 48.682 74.14 46.918 74.14 44.596ZM76.66 44.596C76.66 45.73 77.686 46.558 79.054 46.558C80.44 46.558 81.43 45.73 81.43 44.596C81.43 43.462 80.44 42.634 79.054 42.634C77.686 42.634 76.66 43.462 76.66 44.596ZM92.8137 41.626C94.2177 41.626 95.2617 40.438 95.2617 38.89C95.2617 37.306 94.2177 36.136 92.8137 36.136C91.3917 36.136 90.3657 37.306 90.3657 38.89C90.3657 40.438 91.3917 41.626 92.8137 41.626ZM103.848 37.99V40.096H101.454V47.458H98.9157V32.5H101.454V37.99H103.848ZM92.8137 43.768C90.0057 43.768 87.8637 41.644 87.8637 38.89C87.8637 36.118 90.0057 33.994 92.8137 33.994C95.6037 33.994 97.7637 36.118 97.7637 38.89C97.7637 41.644 95.6037 43.768 92.8137 43.768ZM114.565 35.434H111.325V36.946C111.325 39.808 112.873 41.914 115.393 43.12L114.025 44.92C112.459 44.146 111.037 42.886 110.137 41.428C109.255 42.994 107.707 44.38 106.087 45.172L104.719 43.372C107.239 42.166 108.787 40.06 108.787 37.198V35.434H105.529V33.31H114.565V35.434ZM116.347 47.458V32.5H118.867V47.458H116.347ZM136.155 32.5V47.458H133.671V40.096H132.483V47.206H129.999V44.596C128.793 44.812 127.227 44.902 125.733 44.902H122.277V33.31H128.883V35.434H124.779V42.796H125.895C127.245 42.796 128.793 42.706 129.999 42.526V32.59H132.483V37.99H133.671V32.5H136.155ZM141.311 44.956C141.311 44.092 141.671 43.3 142.301 42.67H138.395V40.708H144.893V39.718H139.907V32.41H152.435V34.372H142.427V35.146H152.255V37H142.427V37.792H152.759V39.718H147.431V40.708H153.929V42.67H150.041C150.653 43.3 151.031 44.092 151.031 44.956C151.031 47.062 148.907 48.664 146.171 48.664C143.435 48.664 141.311 47.062 141.311 44.956ZM143.813 44.668C143.813 45.784 144.821 46.63 146.171 46.63C147.503 46.63 148.511 45.784 148.511 44.668C148.511 43.534 147.503 42.688 146.171 42.688C144.821 42.688 143.813 43.534 143.813 44.668ZM159.283 44.992C159.283 42.904 161.407 41.32 164.161 41.32C166.915 41.32 169.039 42.904 169.039 44.992C169.039 47.062 166.915 48.664 164.161 48.664C161.407 48.664 159.283 47.062 159.283 44.992ZM160.237 40.96H156.313V35.794H161.551V34.66H156.313V32.662H164.053V37.756H158.815V38.962H160.399C162.037 38.962 163.711 38.926 165.313 38.764V40.744C163.765 40.906 162.001 40.96 160.237 40.96ZM164.719 38.44V36.37H167.131V35.668H164.719V33.598H167.131V32.41H169.651V41.608H167.131V38.44H164.719ZM161.821 44.992C161.821 45.91 162.811 46.576 164.161 46.576C165.493 46.576 166.501 45.91 166.501 44.992C166.501 44.074 165.493 43.39 164.161 43.39C162.811 43.39 161.821 44.074 161.821 44.992ZM173.24 36.82C173.24 34.372 175.31 32.482 177.992 32.482C180.692 32.482 182.744 34.372 182.744 36.82C182.744 39.268 180.692 41.14 177.992 41.14C175.31 41.14 173.24 39.268 173.24 36.82ZM175.742 36.82C175.742 38.08 176.714 39.034 177.992 39.034C179.306 39.034 180.26 38.08 180.26 36.82C180.26 35.542 179.306 34.606 177.992 34.606C176.714 34.606 175.742 35.542 175.742 36.82ZM184.058 47.44V44.776C182.402 44.974 180.224 45.064 177.974 45.064H172.682V42.94H178.172C180.296 42.94 182.366 42.868 184.058 42.67V32.5H186.578V47.44H184.058ZM206.323 41.986V48.088H203.803V44.074H194.191V41.986H206.323ZM208.645 34.084V36.154H206.323V37.648H208.645V39.736H206.323V41.284H203.803V32.41H206.323V34.084H208.645ZM192.931 36.748C192.931 34.354 194.965 32.5 197.611 32.5C200.221 32.5 202.255 34.354 202.255 36.748C202.255 39.16 200.221 40.996 197.611 40.996C194.965 40.996 192.931 39.16 192.931 36.748ZM195.433 36.748C195.433 37.99 196.351 38.89 197.611 38.89C198.835 38.89 199.753 37.99 199.753 36.748C199.753 35.506 198.835 34.624 197.611 34.624C196.351 34.624 195.433 35.506 195.433 36.748ZM210.848 42.742H223.538V48.088H221V44.812H210.848V42.742ZM215.996 37.54H218.534V39.628H225.032V41.698H209.498V39.628H215.996V37.54ZM224.204 36.622L223.502 38.62C220.964 38.314 218.606 37.27 217.274 35.848C215.942 37.27 213.584 38.314 211.046 38.62L210.344 36.622C213.926 36.136 215.996 34.696 215.996 32.878V32.338H218.534V32.878C218.534 34.696 220.622 36.136 224.204 36.622Z" fill="white"/>
<path fill-rule="evenodd" clip-rule="evenodd" d="M27 0C41.9 0 54 12.1 54 27C54 41.9 41.9 54 27 54C12.1 54 0 41.9 0 27C0 12.1 12.1 0 27 0ZM28.9 10.8H19.5H19.3C16.5 10.9 14.3 13.2 14.3 16V42.2H31.3V34.3V34.1C31.4 31.3 33.7 29.1 36.5 29.1H40.4H40.6C43.4 29 45.6 26.7 45.6 23.9V17.3V17.2C45.6 16.6 45 16 44.4 16H36.3H36.1C35.5 16 34.9 15.7 34.4 15.2L30.7 11.5L30.5 11.4C30.1 11 29.5 10.8 28.9 10.8ZM28.6 37V39.6H16.8V37H28.6ZM28.8 13.4L32.5 17.1L32.7 17.3C33.7 18.2 34.9 18.7 36.2 18.7H43V23.9V24.1C42.9 25.5 41.8 26.6 40.4 26.6H27.3V29.2H30.6L30.4 29.4C29.3 30.8 28.6 32.5 28.6 34.4H16.8V29.8L17 30C18.4 31.1 20.1 31.8 22 31.8H22.2C23.6 31.7 24.7 30.6 24.7 29.2V16H22.1V29.1H21.9C19.1 29 16.9 26.7 16.9 23.9V16V15.8C17 14.4 18.1 13.3 19.5 13.3L28.8 13.4ZM28.6 17.3C27.9 17.3 27.3 17.9 27.3 18.6C27.3 19.3 27.9 19.9 28.6 19.9C29.3 19.9 29.9 19.3 29.9 18.6C29.9 17.9 29.3 17.3 28.6 17.3Z" fill="white"/>
</svg>
