<svg width="55" height="54" viewBox="0 0 55 54" fill="none" xmlns="http://www.w3.org/2000/svg">
<rect x="0.25" width="54" height="54" rx="27" fill="#F4F4F4"/>
<path d="M26.4402 12.6633C26.8395 12.1123 27.6604 12.1124 28.0597 12.6633L29.1182 14.124C29.425 14.5473 30.0061 14.6629 30.4515 14.3892L31.9884 13.4448C32.5681 13.0886 33.3266 13.4027 33.4846 14.0645L33.9036 15.8191C34.025 16.3276 34.5176 16.6568 35.0339 16.5744L36.8153 16.29C37.4872 16.1827 38.0677 16.7632 37.9604 17.4351L37.676 19.2165C37.5936 19.7328 37.9228 20.2254 38.4313 20.3468L40.1859 20.7658C40.8477 20.9238 41.1618 21.6823 40.8056 22.262L39.8612 23.7989C39.5875 24.2443 39.7031 24.8254 40.1264 25.1322L41.5871 26.1907C42.138 26.59 42.138 27.4109 41.5871 27.8102L40.1264 28.8687C39.7031 29.1755 39.5875 29.7566 39.8612 30.202L40.8056 31.7389C41.1618 32.3186 40.8477 33.0771 40.1859 33.2351L38.4313 33.6541C37.9228 33.7755 37.5936 34.2681 37.676 34.7844L37.9604 36.5658C38.0677 37.2377 37.4872 37.8182 36.8153 37.7109L35.0339 37.4265C34.5176 37.3441 34.025 37.6733 33.9036 38.1818L33.4846 39.9364C33.3266 40.5982 32.5681 40.9123 31.9884 40.5561L30.4515 39.6117C30.0061 39.338 29.425 39.4535 29.1182 39.8769L28.0597 41.3376C27.6604 41.8885 26.8395 41.8885 26.4402 41.3376L25.3817 39.8769C25.0749 39.4535 24.4938 39.338 24.0484 39.6117L22.5115 40.5561C21.9318 40.9123 21.1733 40.5982 21.0153 39.9364L20.5963 38.1818C20.4749 37.6733 19.9823 37.3441 19.466 37.4265L17.6846 37.7109C17.0127 37.8182 16.4322 37.2377 16.5395 36.5658L16.8239 34.7844C16.9063 34.2681 16.5771 33.7755 16.0686 33.6541L14.314 33.2351C13.6522 33.0771 13.3381 32.3186 13.6943 31.7389L14.6387 30.202C14.9124 29.7566 14.7969 29.1755 14.3735 28.8687L12.9128 27.8102C12.3619 27.4109 12.3619 26.59 12.9128 26.1907L14.3735 25.1322C14.7969 24.8254 14.9124 24.2443 14.6387 23.7989L13.6943 22.262C13.3381 21.6823 13.6522 20.9238 14.314 20.7658L16.0686 20.3468C16.5771 20.2254 16.9063 19.7328 16.8239 19.2165L16.5395 17.4351C16.4322 16.7632 17.0127 16.1827 17.6846 16.29L19.466 16.5744C19.9823 16.6568 20.4749 16.3276 20.5963 15.8191L21.0153 14.0645C21.1733 13.4027 21.9318 13.0886 22.5115 13.4448L24.0484 14.3892C24.4938 14.6629 25.0749 14.5473 25.3817 14.124L26.4402 12.6633Z" fill="#9523DC"/>
<path d="M22.4104 29.2287L21.7487 26.1859C21.6778 25.8595 21.8857 25.5377 22.2124 25.4682V25.4682C22.538 25.399 22.8581 25.6069 22.9273 25.9325L23.7276 29.6977C23.8302 30.1802 23.5221 30.6546 23.0396 30.7572V30.7572C22.7463 30.8195 22.4413 30.7305 22.2275 30.5203L19.3903 27.7303L20.0529 30.7774C20.1233 31.1014 19.9169 31.4209 19.5925 31.4898V31.4898C19.2693 31.5586 18.9515 31.3522 18.8828 31.0289L18.0804 27.254C17.9785 26.7745 18.2846 26.3031 18.7641 26.2012V26.2012C19.0555 26.1393 19.3586 26.2276 19.571 26.4365L22.4104 29.2287Z" fill="white"/>
<path d="M26.0967 30.1073C25.5565 30.2222 25.0255 29.8773 24.9107 29.3371L24.2151 26.0649C24.1003 25.5247 24.4451 24.9937 24.9854 24.8788L27.2426 24.399C27.4891 24.3466 27.7314 24.504 27.7838 24.7505V24.7505C27.8362 24.997 27.6788 25.2393 27.4323 25.2917L25.4043 25.7228L25.6722 26.983L27.4584 26.6034C27.7069 26.5505 27.9513 26.7092 28.0041 26.9578V26.9578C28.0569 27.2064 27.8983 27.4507 27.6497 27.5035L25.8636 27.8832L26.1362 29.1659L28.3172 28.7024C28.5637 28.65 28.806 28.8073 28.8584 29.0538V29.0538C28.9108 29.3003 28.7535 29.5426 28.507 29.595L26.0967 30.1073Z" fill="white"/>
<path d="M32.1994 23.3454C32.6063 23.2589 33.0209 23.4548 33.2125 23.824L34.7243 26.7368L34.8971 23.2364C34.9108 22.9598 35.109 22.727 35.3799 22.6694V22.6694C35.7838 22.5835 36.1546 22.9151 36.1144 23.326L35.7098 27.4563C35.6736 27.8258 35.4022 28.1294 35.039 28.2066V28.2066C34.6696 28.2851 34.2926 28.1111 34.1127 27.7791L32.5151 24.8307L32.2551 28.1701C32.2256 28.5489 31.9503 28.8631 31.5787 28.9421V28.9421C31.2128 29.0199 30.8387 28.8514 30.6545 28.5259L28.6089 24.9117C28.4079 24.5566 28.6097 24.1085 29.0088 24.0236V24.0236C29.2759 23.9668 29.5479 24.0964 29.6721 24.3395L31.2722 27.4706L31.4686 24.1947C31.4934 23.7794 31.7925 23.4319 32.1994 23.3454V23.3454Z" fill="white"/>
</svg>
