<svg width="54" height="54" viewBox="0 0 54 54" fill="none" xmlns="http://www.w3.org/2000/svg">
<rect width="54" height="54" rx="27" fill="#F4F4F4"/>
<path fill-rule="evenodd" clip-rule="evenodd" d="M22.6633 30.0312L11.5786 35.0709L31.3307 39.9338L42.4634 34.4581L22.6633 30.0312ZM11.2023 34.2434L22.2871 29.2036C22.467 29.1218 22.6687 29.1008 22.8617 29.144L42.6617 33.5709C43.4993 33.7582 43.6348 34.8951 42.8646 35.2739L31.732 40.7496C31.5401 40.8439 31.3211 40.8677 31.1134 40.8165L11.3612 35.9537C10.5239 35.7475 10.4173 34.6003 11.2023 34.2434Z" fill="black"/>
<path d="M32.0214 28.4812C32.0214 31.3449 29.7828 33.6663 27.0214 33.6663C24.2599 33.6663 22.0214 31.3449 22.0214 28.4812C22.0214 25.6175 26.3964 20.333 27.0214 20.333C27.6464 20.333 32.0214 25.6175 32.0214 28.4812Z" fill="#9523DC"/>
<path d="M37.8933 21.333C37.8933 23.266 36.4542 24.833 34.679 24.833C32.9038 24.833 31.4647 23.266 31.4647 21.333C31.4647 19.4 34.3576 15.833 34.679 15.833C35.0004 15.833 37.8933 19.4 37.8933 21.333Z" fill="#9523DC"/>
<path d="M23.5182 18.4778C23.5182 19.9544 22.3989 21.1514 21.0182 21.1514C19.6375 21.1514 18.5182 19.9544 18.5182 18.4778C18.5182 17.0012 20.7057 14.2764 21.0182 14.2764C21.3307 14.2764 23.5182 17.0012 23.5182 18.4778Z" fill="#9523DC"/>
</svg>
