<svg width="54" height="54" viewBox="0 0 54 54" fill="none" xmlns="http://www.w3.org/2000/svg">
<rect width="54" height="54" rx="27" fill="#F4F4F4"/>
<path fill-rule="evenodd" clip-rule="evenodd" d="M14.7666 14.0907C14.1944 13.1826 14.8469 12 15.9203 12H21.0332C21.5015 12 21.9371 12.2404 22.1868 12.6366L30.2587 25.4445H21.9221L14.7666 14.0907ZM15.9203 12.9091C15.5625 12.9091 15.345 13.3033 15.5357 13.606L22.4237 24.5354H28.6112L21.4177 13.1213C21.3345 12.9892 21.1893 12.9091 21.0332 12.9091H15.9203Z" fill="black"/>
<path fill-rule="evenodd" clip-rule="evenodd" d="M38.0798 12.9091C38.4376 12.9091 38.6552 13.3033 38.4644 13.606L31.5764 24.5354H25.3889L32.5824 13.1213C32.6656 12.9892 32.8108 12.9091 32.967 12.9091H38.0798ZM39.2335 14.0907C39.8058 13.1826 39.1532 12 38.0798 12H32.967C32.4986 12 32.063 12.2404 31.8133 12.6366L23.7414 25.4445H32.078L39.2335 14.0907Z" fill="black"/>
<path d="M18.662 12.4541H17.8638L25.7639 24.9895H26.5622L18.662 12.4541Z" fill="black"/>
<path d="M35.3381 12.4541H36.1364L28.2362 24.9895H27.4379L35.3381 12.4541Z" fill="black"/>
<ellipse cx="27" cy="31.2876" rx="10.9091" ry="10.4545" fill="#9523DC"/>
<path d="M27.0725 28.2443C25.3027 28.2443 23.9535 29.5439 23.9535 31.2812C23.9535 33.0186 25.3027 34.3319 27.0725 34.3319C28.3926 34.3319 29.6112 33.5384 29.8723 32.4577H27.7175C27.193 32.4577 26.7678 32.029 26.7678 31.5001C26.7678 30.9713 27.193 30.5425 27.7175 30.5425H31.7219C32.1265 30.5425 32.4545 30.8733 32.4545 31.2812C32.4545 34.0719 30.2495 36.2881 27.0725 36.2881C23.9535 36.2881 21.5454 34.113 21.5454 31.2812C21.5454 28.4632 23.9535 26.2881 27.0725 26.2881C28.623 26.2881 30.0431 26.8215 31.0629 27.7739C31.5441 28.2233 31.3522 28.9789 30.7757 29.2941C30.2522 29.5803 29.6112 29.3825 29.1573 28.9938C28.608 28.5234 27.9027 28.2443 27.0725 28.2443Z" fill="white"/>
</svg>
