<svg width="55" height="54" viewBox="0 0 55 54" fill="none" xmlns="http://www.w3.org/2000/svg">
<rect x="0.75" width="54" height="54" rx="27" fill="#F4F4F4"/>
<path fill-rule="evenodd" clip-rule="evenodd" d="M35.9232 14.3338L14.3398 20.1171C12.2059 20.6888 10.9396 22.8822 11.5114 25.016L12.4028 28.343C12.4114 28.3407 12.42 28.3383 12.4286 28.336C14.0444 27.9031 15.7159 28.9017 16.162 30.5664C16.6081 32.2312 15.6598 33.9318 14.044 34.3647C14.0354 34.3671 14.0268 34.3693 14.0181 34.3715L14.6767 36.8292C15.2484 38.9631 17.4418 40.2294 19.5757 39.6576L41.1591 33.8744C43.2929 33.3026 44.5593 31.1092 43.9875 28.9754L43.3282 26.5148L43.3038 26.5214C41.688 26.9544 40.0165 25.9558 39.5704 24.291C39.1243 22.6262 40.0726 20.9256 41.6884 20.4927L41.7129 20.4863L40.8222 17.1622C40.2504 15.0284 38.0571 13.762 35.9232 14.3338Z" fill="#9523DC"/>
<path d="M19.3397 27.5752C18.6285 27.7657 18.2138 28.4501 18.403 29.1563C18.5936 29.8676 19.2949 30.2529 20.0061 30.0624C20.504 29.929 20.8611 29.555 20.9796 29.078L21.7184 29.253C21.5145 29.9365 20.9445 30.4788 20.1731 30.6855C19.0297 30.9918 17.9195 30.4155 17.6371 29.3615C17.3547 28.3074 18.028 27.2532 19.1713 26.9469C19.9318 26.7431 20.6843 26.9255 21.1957 27.4118L20.6571 27.9401C20.327 27.5833 19.8321 27.4432 19.3397 27.5752Z" fill="white"/>
<path d="M21.6992 28.7628C21.485 27.9631 22.0033 27.162 22.9005 26.9216C23.7922 26.6826 24.6471 27.1159 24.8613 27.9155C25.0756 28.7151 24.5505 29.5125 23.6587 29.7515C22.7615 29.9919 21.9135 29.5624 21.6992 28.7628ZM22.4542 28.5605C22.5766 29.0174 23.0241 29.2648 23.4946 29.1388C23.9596 29.0142 24.2233 28.5762 24.1009 28.1192C23.9771 27.6571 23.531 27.4149 23.066 27.5395C22.5955 27.6656 22.3304 28.0984 22.4542 28.5605Z" fill="white"/>
<path d="M26.6994 28.9367C26.0594 29.1082 25.446 28.7884 25.2846 28.1861L24.824 26.4674L25.5845 26.2636L26.0408 27.9668C26.1146 28.242 26.363 28.3813 26.642 28.3065C26.8991 28.2377 27.1048 27.9766 27.1543 27.7018L26.6896 25.9675L27.4555 25.7623L28.1831 28.478L27.4172 28.6832L27.3532 28.4443C27.2173 28.6811 26.9894 28.859 26.6994 28.9367Z" fill="white"/>
<path d="M31.5282 26.1291C31.7424 26.9288 31.272 27.7115 30.4459 27.9329C30.0849 28.0296 29.7301 27.9967 29.4256 27.8668L29.7901 29.2272L29.0296 29.431L28.007 25.6145L28.7675 25.4107L28.8384 25.6756C29.0372 25.4108 29.3266 25.1997 29.6877 25.103C30.5137 24.8816 31.3139 25.3295 31.5282 26.1291ZM30.7732 26.3314C30.6494 25.8693 30.2033 25.6271 29.7383 25.7517C29.2733 25.8763 29.0082 26.309 29.132 26.7712C29.2544 27.2281 29.7018 27.4755 30.1669 27.3509C30.6319 27.2263 30.8956 26.7883 30.7732 26.3314Z" fill="white"/>
<path d="M31.7141 26.0793C31.4999 25.2797 32.0182 24.4785 32.9154 24.2381C33.8071 23.9992 34.662 24.4324 34.8762 25.232C35.0905 26.0317 34.5654 26.8291 33.6736 27.068C32.7764 27.3084 31.9284 26.8789 31.7141 26.0793ZM32.4691 25.877C32.5915 26.3339 33.039 26.5814 33.5094 26.4553C33.9745 26.3307 34.2382 25.8927 34.1158 25.4358C33.992 24.9736 33.5459 24.7314 33.0809 24.856C32.6104 24.9821 32.3453 25.4149 32.4691 25.877Z" fill="white"/>
<path d="M36.35 23.3178C36.9955 23.1448 37.6158 23.4684 37.7772 24.0707L38.2363 25.7842L37.4649 25.9909L37.01 24.293C36.9362 24.0178 36.6933 23.877 36.4143 23.9517C36.1517 24.0221 35.9446 24.2779 35.8951 24.5527L36.3598 26.287L35.5994 26.4908L34.8717 23.7751L35.6322 23.5714L35.6976 23.8154C35.8335 23.5786 36.06 23.3955 36.35 23.3178Z" fill="white"/>
</svg>
