<svg width="55" height="54" viewBox="0 0 55 54" fill="none" xmlns="http://www.w3.org/2000/svg">
<rect x="0.5" width="54" height="54" rx="27" fill="#F4F4F4"/>
<g clip-path="url(#clip0_21396_183648)">
<path d="M36.4292 17.1133C36.543 21.659 34.0064 22.5625 32.5007 22.8276C32.4533 22.8939 32.5459 24.2389 32.9549 24.9662C33.364 25.6935 34.2618 25.7995 34.6595 25.7616C35.4928 25.5628 37.239 25.1253 37.5572 24.9662C37.9549 24.7673 38.1822 24.398 38.4663 23.6878C39.3072 23.5514 39.7637 22.8355 39.8868 22.4946L40.4834 20.2219C40.5591 20.023 40.6652 19.506 40.4834 19.0287C40.3015 18.5514 39.8584 18.1859 39.6595 18.0628C39.0913 17.9112 37.2245 17.2949 36.4292 17.1133Z" fill="#9523DC"/>
<path d="M22.8568 31.5158C25.8896 29.1603 30.4202 25.6924 32.4997 22.9443L33.214 26.1586C30.9611 28.494 27.0542 32.0461 26.5921 32.5776C26.8231 33.0125 26.6884 33.7855 26.5921 34.1177C26.4958 34.4499 26.2397 35.3438 25.9855 36.2618C25.6678 37.4093 25.1191 37.5905 24.4837 37.9227C24.4374 38.6475 23.7712 39.1508 23.4439 39.3118C23.0203 39.493 21.8784 39.8977 20.7 40.0668C19.5216 40.2359 18.9382 39.3118 18.7938 38.8287L18.214 36.8729C17.7134 36.7521 17.8483 36.521 16.7854 36.1586C20.7 37.2301 23.0302 33.4787 22.8568 31.5158Z" fill="#9523DC"/>
<path fill-rule="evenodd" clip-rule="evenodd" d="M15.6364 36.264C14.424 35.9391 13.7045 34.6929 14.0294 33.4805L14.6172 31.2866C14.9421 30.0742 16.1883 29.3547 17.4007 29.6796L25.3009 31.7964C26.5133 32.1213 27.2329 33.3675 26.908 34.5799L26.3201 36.7738C25.9953 37.9862 24.7491 38.7057 23.5366 38.3809L15.6364 36.264ZM14.9075 33.7158C14.7126 34.4432 15.1443 35.191 15.8717 35.3859L23.7719 37.5027C24.4994 37.6977 25.2471 37.266 25.442 36.5385L26.0299 34.3446C26.2248 33.6172 25.7931 32.8695 25.0656 32.6745L17.1655 30.5577C16.438 30.3628 15.6903 30.7945 15.4953 31.5219L14.9075 33.7158Z" fill="black"/>
<path fill-rule="evenodd" clip-rule="evenodd" d="M17.17 29.6299C17.2468 29.6422 17.3237 29.6586 17.4004 29.6791L22.237 30.9751L21.8239 29.4331C21.629 28.7057 20.8812 28.274 20.1538 28.4689L17.9599 29.0568C17.6218 29.1473 17.3472 29.3575 17.17 29.6299ZM16.0697 30.0059C16.21 29.1532 16.8338 28.4173 17.7246 28.1786L19.9185 27.5908C21.1309 27.2659 22.3771 27.9854 22.702 29.1979L23.5227 32.2608L17.1651 30.5572C16.971 30.5052 16.7766 30.4979 16.5919 30.5282L15.9668 30.631L16.0697 30.0059ZM17.4135 35.7987L23.7715 37.5023C23.9656 37.5543 24.1599 37.5617 24.3446 37.5313L24.9695 37.4287L24.8669 38.0535C24.7268 38.9066 24.1029 39.6428 23.2118 39.8816L21.0179 40.4694C19.8055 40.7943 18.5593 40.0748 18.2344 38.8623L17.4135 35.7987ZM18.6991 37.0843L19.1125 38.627C19.3074 39.3545 20.0552 39.7862 20.7826 39.5913L22.9765 39.0034C23.3148 38.9128 23.5896 38.7024 23.7668 38.4297C23.6899 38.4174 23.613 38.401 23.5362 38.3804L18.6991 37.0843Z" fill="black"/>
<path fill-rule="evenodd" clip-rule="evenodd" d="M29.6972 22.2035C28.4848 21.8786 27.7653 20.6324 28.0902 19.4199L28.678 17.2261C29.0029 16.0137 30.2491 15.2942 31.4615 15.619L39.3617 17.7359C40.5741 18.0607 41.2936 19.307 40.9688 20.5194L40.3809 22.7132C40.0561 23.9257 38.8098 24.6452 37.5974 24.3203L29.6972 22.2035ZM28.9683 19.6552C28.7734 20.3827 29.2051 21.1304 29.9325 21.3253L37.8327 23.4422C38.5602 23.6371 39.3079 23.2054 39.5028 22.478L40.0907 20.2841C40.2856 19.5566 39.8539 18.8089 39.1264 18.614L31.2262 16.4971C30.4988 16.3022 29.7511 16.7339 29.5561 17.4614L28.9683 19.6552Z" fill="black"/>
<path fill-rule="evenodd" clip-rule="evenodd" d="M31.2308 15.5693C31.3076 15.5817 31.3845 15.598 31.4611 15.6186L36.2978 16.9146L35.8847 15.3726C35.6897 14.6451 34.942 14.2134 34.2146 14.4084L32.0207 14.9962C31.6826 15.0868 31.408 15.2969 31.2308 15.5693ZM30.1304 15.9454C30.2708 15.0926 30.8946 14.3568 31.7854 14.1181L33.9793 13.5303C35.1917 13.2054 36.4379 13.9249 36.7628 15.1373L37.5835 18.2002L31.2259 16.4967C31.0318 16.4447 30.8374 16.4373 30.6527 16.4677L30.0276 16.5705L30.1304 15.9454ZM31.4743 21.7381L37.8323 23.4418C38.0264 23.4938 38.2207 23.5011 38.4054 23.4708L39.0303 23.3681L38.9277 23.993C38.7876 24.846 38.1637 25.5822 37.2726 25.821L35.0787 26.4089C33.8663 26.7337 32.6201 26.0142 32.2952 24.8018L31.4743 21.7381ZM32.7599 23.0238L33.1733 24.5665C33.3682 25.294 34.116 25.7257 34.8434 25.5307L37.0373 24.9429C37.3756 24.8522 37.6504 24.6419 37.8276 24.3691C37.7507 24.3568 37.6738 24.3404 37.597 24.3199L32.7599 23.0238Z" fill="black"/>
<path fill-rule="evenodd" clip-rule="evenodd" d="M20.6747 28.3095L28.8083 20.1758L29.1044 20.6894C29.2792 20.9926 29.5687 21.2279 29.9328 21.3255L36.8405 23.1764L36.0981 23.9188L32.7602 23.0244L33.1736 24.5671C33.2712 24.9316 33.507 25.2214 33.8106 25.3961L34.3249 25.692L26.1908 33.826L25.8949 33.3119C25.7202 33.0082 25.4305 32.7725 25.066 32.6749L22.509 31.9897L21.8242 29.4339C21.7266 29.0698 21.4913 28.7803 21.1882 28.6055L20.6747 28.3095ZM31.7462 22.7526L29.6975 22.2036C29.2918 22.0949 28.9411 21.8827 28.6664 21.6034L22.1022 28.1676C22.3814 28.4423 22.5936 28.793 22.7023 29.1986L23.2513 31.2475L25.3013 31.7968C25.7074 31.9056 26.0585 32.1181 26.3333 32.3979L32.8967 25.8345C32.6169 25.5597 32.4043 25.2086 32.2954 24.8024L31.7462 22.7526Z" fill="black"/>
</g>
<defs>
<clipPath id="clip0_21396_183648">
<rect width="40" height="40" fill="white" transform="translate(7.5 7)"/>
</clipPath>
</defs>
</svg>
