<svg width="54" height="54" viewBox="0 0 54 54" fill="none" xmlns="http://www.w3.org/2000/svg">
<rect width="54" height="54" rx="27" fill="#F4F4F4"/>
<path d="M18.1753 22.2864C21.5302 18.3945 25.5135 17.4708 24.8958 13.4336C24.8106 12.8524 25.3218 12.3335 25.9183 12.4788C30.5619 13.5789 33.6293 17.8445 31.9145 23.6149C31.808 23.9677 32.1169 24.331 32.479 24.2376C33.6506 23.9574 34.5133 22.9299 34.9819 21.7571C35.1843 21.2382 35.9085 21.1552 36.2493 21.6015C38.9333 25.1509 39.338 30.0184 38.273 33.6716C37.3996 36.6502 35.3653 39.1203 32.5323 40.4176C29.1667 41.964 24.2674 42.1093 20.2628 39.6496C14.0854 35.8614 13.7233 27.4653 18.1859 22.2968L18.1753 22.2864Z" fill="#9523DC"/>
<path d="M20.3348 34.1908C19.9993 34.1908 19.7273 33.9188 19.7273 33.5833V29.5079C19.7273 29.1724 19.9993 28.9004 20.3348 28.9004V28.9004C20.6703 28.9004 20.9423 29.1724 20.9423 29.5079V31.0047H22.9265V29.5079C22.9265 29.1724 23.1985 28.9004 23.534 28.9004V28.9004C23.8695 28.9004 24.1415 29.1724 24.1415 29.5079V33.5833C24.1415 33.9188 23.8695 34.1908 23.534 34.1908V34.1908C23.1985 34.1908 22.9265 33.9188 22.9265 33.5833V32.0568H20.9423V33.5833C20.9423 33.9188 20.6703 34.1908 20.3348 34.1908V34.1908Z" fill="white"/>
<path d="M24.7755 31.5419C24.7755 30.0048 25.9689 28.8184 27.5146 28.8184C29.0603 28.8184 30.2537 30.0048 30.2537 31.5419C30.2537 33.0865 29.0603 34.2729 27.5146 34.2729C25.9689 34.2729 24.7755 33.0865 24.7755 31.5419ZM25.9689 31.5419C25.9689 32.4895 26.6375 33.2059 27.5146 33.2059C28.3917 33.2059 29.0603 32.4895 29.0603 31.5419C29.0603 30.5943 28.3917 29.8854 27.5146 29.8854C26.6375 29.8854 25.9689 30.5943 25.9689 31.5419Z" fill="white"/>
<path d="M32.3496 34.1908C32.0141 34.1908 31.7421 33.9188 31.7421 33.5833V29.9525H30.9598C30.6692 29.9525 30.4337 29.717 30.4337 29.4265V29.4265C30.4337 29.136 30.6692 28.9004 30.9598 28.9004H33.7467C34.0372 28.9004 34.2728 29.136 34.2728 29.4265V29.4265C34.2728 29.717 34.0372 29.9525 33.7467 29.9525H32.9571V33.5833C32.9571 33.9188 32.6851 34.1908 32.3496 34.1908V34.1908Z" fill="white"/>
</svg>
